<svg width="54" height="40" viewBox="0 0 54 40" fill="none" xmlns="http://www.w3.org/2000/svg">
<mask id="mask0" mask-type="alpha" maskUnits="userSpaceOnUse" x="2" y="2" width="50" height="37">
<path d="M2.08022 32.2597C1.68467 27.5131 2.55488 15.6465 9.20015 6.15329C10.7824 4.76886 15.2521 2 20.4734 2C18.2979 2.7911 13.4722 4.96664 11.5735 7.33995C16.4732 4.51317 28.843 0.608986 40.6752 6.40682L34.4318 2.02741C39.2593 2.31816 43.3099 4.84958 44.7999 6.15329C51.4451 15.6465 52.3153 27.5131 51.9198 32.2597C50.3376 34.633 45.5118 39.1423 38.8666 38.193L35.8999 34.633C38.0754 34.0397 42.6638 32.2597 43.6132 29.8864C43.2092 30.1092 42.805 30.3218 42.4007 30.5242C40.5347 31.4588 38.6671 32.1799 36.8205 32.7206C25.4329 36.0554 14.8469 32.5294 10.3868 29.8864C11.3361 32.2597 15.9245 34.0397 18.1 34.633L15.1334 38.193C8.48814 39.1423 3.66244 34.633 2.08022 32.2597Z" fill="#C4C4C4"/>
</mask>
<g mask="url(#mask0)">
<path d="M2.08022 32.2597C1.68467 27.5131 2.55488 15.6465 9.20015 6.15329C10.7824 4.76886 15.2521 2 20.4734 2C18.2979 2.7911 13.4722 4.96664 11.5735 7.33995C16.4732 4.51317 28.843 0.608986 40.6752 6.40682L34.4318 2.02741C39.2593 2.31816 43.3099 4.84958 44.7999 6.15329C51.4451 15.6465 52.3153 27.5131 51.9198 32.2597C50.3376 34.633 45.5118 39.1423 38.8666 38.193L35.8999 34.633C38.0754 34.0397 42.6638 32.2597 43.6132 29.8864C43.2092 30.1092 42.805 30.3218 42.4007 30.5242C40.5347 31.4588 38.6671 32.1799 36.8205 32.7206C25.4329 36.0554 14.8469 32.5294 10.3868 29.8864C11.3361 32.2597 15.9245 34.0397 18.1 34.633L15.1334 38.193C8.48814 39.1423 3.66244 34.633 2.08022 32.2597Z" fill="#A5B8FF"/>
</g>
<path d="M2.05191 32.2597C3.63413 34.633 8.45983 39.1423 15.1051 38.193L18.0717 34.633C15.8962 34.0397 11.3078 32.2597 10.3585 29.8864C12.982 31.441 17.7249 33.3012 23.5038 33.8908M41.2116 6.69115C29.2104 0.484401 16.5229 4.46817 11.5452 7.33995C13.4438 4.96664 18.2696 2.7911 20.4451 2C15.2238 2 10.7541 4.76886 9.17184 6.15329C3.83518 13.7771 2.27488 19.3716 2.05176 25.1398M35.198 2.02741C40.0255 2.31816 43.2816 4.84958 44.7715 6.15329C51.4168 15.6465 52.287 27.5131 51.8915 32.2597C50.3093 34.633 45.4835 39.1423 38.8382 38.193L35.8716 34.633C38.0471 34.0397 42.6355 32.2597 43.5849 29.8864C43.1809 30.1092 42.7767 30.3218 42.3724 30.5242C40.5064 31.4588 38.6388 32.1799 36.7922 32.7206M31.1408 33.8577C31.203 33.8507 31.2653 33.8434 31.3276 33.836" stroke="#444B54" stroke-width="2.37331" stroke-linecap="round" stroke-linejoin="round"/>
<circle cx="19.7998" cy="22.1731" r="4.74662" fill="#F7FAFF"/>
<circle cx="35.2261" cy="22.1731" r="4.74662" fill="#F7FAFF"/>
</svg>
